<?xml version="1.0" encoding="UTF-8" standalone="no"?><!DOCTYPE svg PUBLIC "-//W3C//DTD SVG 1.1//EN" "http://www.w3.org/Graphics/SVG/1.1/DTD/svg11.dtd"><svg width="100%" height="100%" viewBox="0 0 1024 1024" version="1.1" xmlns="http://www.w3.org/2000/svg" xmlns:xlink="http://www.w3.org/1999/xlink" xml:space="preserve" xmlns:serif="http://www.serif.com/" style="fill-rule:evenodd;clip-rule:evenodd;stroke-linejoin:round;stroke-miterlimit:2;"><path d="M2.145,741.073c-0.062,-15.291 1.326,-33.055 2.851,-48.337c11.698,-117.959 43.633,-241.013 102.263,-348.315c43.924,-80.386 129.842,-178.815 242.502,-178.642c124.781,0.192 228.749,105.268 300.557,182.467c-9.223,8.225 -21.488,22.609 -29.879,31.869c-15.297,16.649 -30.49,33.369 -45.583,50.157c-7.157,7.951 -15.862,18.465 -23.067,25.961c-56.692,-62.874 -128.931,-141.539 -226.903,-152.156c-43.713,-4.736 -81.594,8.971 -115.653,32.26c-96.954,66.302 -152.162,211.061 -181.061,311.509c-10.081,35.041 -19.597,69.983 -24.369,105.907l-0.816,9.77l-1.022,0.543l-0.938,-2.024c0.181,-6.838 0.181,-14.222 1.117,-20.968Z" style="fill:#070521;fill-rule:nonzero;"/><path d="M2.145,741.073c0.399,3.47 0.176,10.547 1.659,12.679l-0.816,9.77l-1.022,0.543l-0.938,-2.024c0.181,-6.838 0.181,-14.222 1.117,-20.968Z" style="fill:#120f13;fill-rule:nonzero;"/><path d="M699.298,425.882c43.905,52.762 84.475,107.549 121.533,164.116c26.318,39.044 51.492,78.658 75.497,118.804c24.8,41.863 46.958,82.403 70.485,124.549c12.779,22.889 25.336,45.871 37.672,68.941c4.027,7.49 17.192,31.837 19.515,39.199c-35.825,-48.761 -86.044,-106.388 -127.016,-151.772c-10.586,-11.829 -21.516,-23.422 -32.78,-34.769c-3.669,-3.751 -18.132,-18.163 -20.261,-21.47c-14.028,-11.769 -29.534,-29.206 -43.203,-42.009c-41.109,-38.497 -87.284,-81.356 -148.31,-94.076c-52.24,-10.89 -85.155,6.055 -127.404,28.541c29.051,-36.839 64.624,-74.804 95.639,-110.745c19.061,-22.086 34.995,-42.042 55.274,-63.617l23.359,-25.691Z" style="fill:#6366f1;fill-rule:nonzero;"/><path d="M699.298,425.882c43.905,52.762 84.475,107.549 121.533,164.116c26.318,39.044 51.492,78.658 75.497,118.804c24.8,41.863 46.958,82.403 70.485,124.549c12.779,22.889 25.336,45.871 37.672,68.941c4.027,7.49 17.192,31.837 19.515,39.199c-35.825,-48.761 -86.044,-106.388 -127.016,-151.772c-10.586,-11.829 -21.516,-23.422 -32.78,-34.769c-3.669,-3.751 -18.132,-18.163 -20.261,-21.47c-3.398,-9.953 -12.896,-29.238 -17.614,-39.445c-29.768,-63.02 -65.233,-123.908 -106.066,-182.095c-13.71,-19.63 -31.666,-41.524 -44.324,-60.367l23.359,-25.691Z" style="fill:#070521;fill-rule:nonzero;"/><path d="M1016.917,-0c-0.355,3.149 -54.607,68.299 -61.981,77.535c-45.35,56.367 -91.2,112.432 -137.547,168.188c-60.483,74.264 -122.067,147.849 -184.741,220.738c-167.011,188.558 -338.022,374.435 -512.94,557.538c0.269,-3.51 67.777,-87.313 74.522,-95.837c113.504,-143.981 230.148,-286.088 349.867,-426.243c99.523,-112.98 202.154,-223.881 307.805,-332.607l119.36,-122.771c15.061,-15.301 30.225,-31.593 45.656,-46.542Z" style="fill:#070521;fill-rule:nonzero;"/><path d="M2.988,763.522c0.042,3.659 -1.834,19.326 -2.988,22.66c0.134,-4.955 0.015,-20.195 1.028,-24.141l0.938,2.024l1.022,-0.543Z" style="fill:#7f8086;fill-rule:nonzero;"/></svg>